<svg width="68" height="44" viewBox="0 0 68 44" fill="none" xmlns="http://www.w3.org/2000/svg">
<path d="M57.7719 32.2445L23.2132 30.3452C24.9042 23.7887 22.5804 18.9051 11.6932 20.5535C9.71985 19.9567 9.23136 17.9973 10.6569 16.4393C24.7488 -15.913 68.9778 4.92606 57.7719 32.2445Z" fill="#DC2626"/>
<path d="M24.7082 39.0201C24.634 39.0336 24.5958 39.034 24.5937 39.0212L24.5184 38.5809C24.5163 38.5681 24.4799 38.5585 24.4092 38.5519L21.9722 38.3247C21.9015 38.3181 21.8577 38.2764 21.8407 38.1994L21.2542 35.5461C21.2372 35.4692 21.2224 35.3939 21.2097 35.3203L20.7722 32.7803C20.7596 32.7066 20.7703 32.6407 20.8044 32.5826L21.9812 30.5755C22.0153 30.5173 22.0712 30.4884 22.1491 30.4889L24.8342 30.5037C24.912 30.5041 24.9872 30.4941 25.0599 30.4738L27.5672 29.7725C27.6399 29.7522 27.7137 29.7363 27.7887 29.7249L30.3746 29.3299C30.4496 29.3184 30.5248 29.3134 30.6004 29.3148L33.2084 29.3637C33.284 29.3651 33.3597 29.3614 33.4355 29.3525L36.0515 29.0468C36.1273 29.038 36.203 29.0358 36.2787 29.0403L38.889 29.1966C38.9646 29.2011 39.04 29.2087 39.1151 29.2194L41.7062 29.5884C41.7813 29.5991 41.8562 29.6118 41.9307 29.6264L44.5038 30.1304C44.5784 30.145 44.6529 30.1585 44.7274 30.1709L47.297 30.5968C47.3715 30.6092 47.4465 30.6171 47.5219 30.6206L50.1229 30.7415C50.1983 30.745 50.2736 30.7504 50.3487 30.7575L52.941 31.0048C53.0162 31.012 53.0918 31.0181 53.168 31.0232L55.7953 31.1969C55.8714 31.2019 55.9471 31.2109 56.0222 31.2239L58.613 31.6707C58.6881 31.6837 58.7564 31.7146 58.818 31.7634L60.9429 33.4476C61.0045 33.4964 61.0707 33.5368 61.1415 33.5688L63.5857 34.6722C63.6566 34.7041 63.7055 34.7564 63.7326 34.8289L64.6657 37.3299C64.6927 37.4024 64.713 37.473 64.7264 37.5416L65.1905 39.911C65.2039 39.9797 65.1859 40.0348 65.1363 40.0764L63.4267 41.5118C63.3771 41.5534 63.3178 41.5624 63.2487 41.5389L60.8645 40.7266C60.7954 40.7031 60.7228 40.6833 60.6466 40.6675L58.0191 40.1198C57.943 40.104 57.8746 40.0707 57.8141 40.0201L55.725 38.2739C55.6645 38.2233 55.5964 38.1915 55.521 38.1787L52.9164 37.7373C52.8409 37.7245 52.7659 37.7091 52.6916 37.6911L50.1253 37.0694C50.0509 37.0514 49.9753 37.0472 49.8985 37.0569L47.2487 37.3901C47.1719 37.3998 47.0958 37.4098 47.0203 37.4203L44.417 37.7808C44.3415 37.7913 44.2663 37.7963 44.1912 37.7958L41.6015 37.7801C41.5264 37.7796 41.4514 37.7821 41.3765 37.7875L38.7912 37.9748C38.7163 37.9803 38.641 37.9806 38.5652 37.9757L35.9514 37.8082C35.8757 37.8033 35.8001 37.8032 35.7248 37.8077L33.126 37.965C33.0507 37.9696 32.9752 37.9733 32.8996 37.9763L30.2911 38.0781C30.2155 38.081 30.1404 38.0885 30.0658 38.1006L27.4918 38.5166C27.4171 38.5287 27.3427 38.5414 27.2685 38.5549L24.7082 39.0201Z" fill="white" stroke="white" stroke-width="4"/>
<path d="M11.1065 28.3754C10.8408 28.8291 10.4492 29.1212 9.9316 29.2517L8.37896 29.6433C7.86142 29.7738 7.38591 29.6879 6.95244 29.3856L5.65203 28.4787C5.21856 28.1764 4.80266 27.9213 4.40434 27.7134L3.20936 27.0898C2.81104 26.882 2.58268 26.554 2.52429 26.1058L2.34913 24.7614C2.29074 24.3132 2.18744 23.8844 2.03922 23.4749L1.59457 22.2465C1.44635 21.837 1.47236 21.4366 1.6726 21.0454L2.27332 19.8716C2.47356 19.4804 2.76158 19.19 3.13738 19.0005L4.26477 18.4321C4.64056 18.2427 5.01242 18.0535 5.38034 17.8646L6.48411 17.298C6.85203 17.1091 7.22772 17.0917 7.61119 17.2457L8.76159 17.7077C9.14506 17.8617 9.52263 18.0279 9.89429 18.2063L11.0093 18.7415C11.381 18.9199 11.7551 19.1719 12.1318 19.4976L13.262 20.4744C13.6387 20.8 13.8107 21.2104 13.778 21.7056L13.68 23.1913C13.6473 23.6865 13.5426 24.1502 13.3658 24.5822L12.8355 25.8784C12.6587 26.3105 12.548 26.5105 12.5033 26.4784L12.3692 26.382C12.3245 26.3499 12.1693 26.5607 11.9036 27.0144L11.1065 28.3754Z" fill="white" stroke="white" stroke-width="3"/>
</svg>
