<svg width="247" height="47" viewBox="0 0 247 47" fill="none" xmlns="http://www.w3.org/2000/svg">
<path d="M7 35.5C5.4 9.5 1.66667 2.66667 0 2.5C7 2.5 19.7 4.2 14.5 11C8 19.5 9 68 7 35.5Z" fill="#60A5FA"/>
<path d="M27.9857 32.9394C23.3033 6.98715 12.3776 0.166361 7.5 0C27.9857 0 65.1527 1.69688 49.9347 8.48439C30.9123 16.9688 33.8388 65.3797 27.9857 32.9394Z" fill="#60A5FA"/>
<path d="M226.014 20.9835C230.697 13.9056 241.622 12.0454 246.5 12C226.014 12 188.847 12.4628 204.065 14.3139C223.088 16.6279 220.161 29.8308 226.014 20.9835Z" fill="#60A5FA"/>
<path d="M232.516 26.2238C230.684 15.0172 226.409 12.0718 224.5 12C232.516 12 247.06 12.7327 241.105 15.6637C233.661 19.3274 234.806 40.2322 232.516 26.2238Z" fill="#60A5FA"/>
</svg>
