<svg width="353" height="53" viewBox="0 0 353 53" fill="none" xmlns="http://www.w3.org/2000/svg">
<path d="M22.776 46.1219C21.1796 33.0674 15.5639 29.2679 12.9556 29C23.935 29.7786 43.7951 32.0331 35.4001 34.8224C24.9064 38.3091 24.7716 62.44 22.776 46.1219Z" fill="#60A5FA"/>
<path d="M281.183 48.727C300.405 51.3371 324.015 34.5891 333.417 25.8888C348.427 12 317.847 30.239 295.461 30.239C274.58 30.239 240.44 21.9003 210.667 25.8888C181.14 29.8444 162.089 10.2999 141.718 17.5501C121.347 24.8004 119.78 22.6253 102.02 21.9003C84.2603 21.1752 83.2157 4.13723 76.4253 16.4626C69.6348 28.788 43.5177 17.1876 30.9815 17.5501C18.4453 17.9126 7.4761 25.8888 23.1464 33.139C38.8166 40.3893 52.3975 35.3141 79.037 30.239C105.676 25.1638 112.989 37.4892 151.12 40.7518C189.251 44.0144 218.502 37.4892 224.248 35.3141C229.994 33.139 231.038 41.8393 240.441 37.4892C249.843 33.139 257.155 45.4644 281.183 48.727Z" fill="#93C5FD"/>
<path d="M61.5334 0.376302C40.4961 -3.22137 14.6566 19.8637 4.36662 31.856C-12.06 51 21.4073 25.8598 45.9073 25.8598C68.7597 25.8598 106.124 37.3537 138.709 31.856C171.024 26.4037 191.874 53.3434 214.169 43.3498C236.464 33.3563 238.179 36.3543 257.616 37.3537C277.052 38.353 278.196 61.8379 285.627 44.8489C293.059 27.8598 321.642 43.8495 335.362 43.3498C349.082 42.8501 361.087 31.856 343.937 21.8624C326.787 11.8688 311.924 18.8643 282.769 25.8598C253.614 32.8553 245.611 15.8663 203.879 11.3692C162.147 6.87209 130.134 15.8663 123.845 18.8643C117.557 21.8624 116.414 9.87015 106.123 15.8663C95.8335 21.8624 87.8302 4.8734 61.5334 0.376302Z" fill="white"/>
</svg>
