<svg width="184" height="19" viewBox="0 0 184 19" fill="none" xmlns="http://www.w3.org/2000/svg">
<path d="M151.872 0.152891C162.856 -1.30882 176.347 8.07036 181.72 12.9426C190.297 20.7206 172.823 15.44 160.031 15.44C148.099 15.44 124.585 15.5769 107.615 18.2215C91.578 20.7206 82.7355 16.3678 72.5872 16.7738C62.4388 17.1798 37.1376 19.2406 34.8674 18.2215C28.2717 15.2607 16.0631 17.8154 8.89958 17.6124C1.73604 17.4094 -4.53207 12.9426 4.42236 8.8824C13.3768 4.82215 21.1373 7.66433 36.3598 10.5065C51.5824 13.3487 55.7611 6.44625 77.5502 4.61915C99.3393 2.79204 129.138 3.17828 151.872 0.152891Z" fill="white"/>
</svg>
