<svg width="376" height="376" viewBox="0 0 376 376" fill="none" xmlns="http://www.w3.org/2000/svg">
<g clip-path="url(#clip0_2724_120)">
<mask id="mask0_2724_120" style="mask-type:luminance" maskUnits="userSpaceOnUse" x="0" y="0" width="376" height="376">
<path d="M376 0H0V376H376V0Z" fill="white"/>
</mask>
<g mask="url(#mask0_2724_120)">
<mask id="mask1_2724_120" style="mask-type:alpha" maskUnits="userSpaceOnUse" x="0" y="0" width="376" height="376">
<path d="M0 17.5L22 0H173.5L177.5 5L178.5 2.5L188.5 0H350.5L373.5 7L376 15.5L373 154L376 223V359.5L366 376H269L253 374L227 376H201L182.5 372L179 376H14L12 370L8.82149e-06 359.5L2.00001 104L0 17.5Z" fill="#D9D9D9"/>
</mask>
<g mask="url(#mask1_2724_120)">
<path d="M733.206 29.02L729.59 61.3929L830.841 127.939L791.063 201.681L798.295 323.98L852.535 340.168L830.841 493.045L780.214 507.434L762.135 572.18L843.496 617.145L867 755.634H733.206L718.741 786.209L657.269 797H519.858L364.367 739.447L331.824 705.273L141.98 764.627L116.667 755.634L93.1631 764.627L-62.3275 689.088L-165.385 755.634L-208.778 651.318L-300.987 627.936L-357.036 705.273L-461.902 689.088L-447.438 572.18L-472.749 525.42L-416.701 440.888L-483.598 392.327L-541.454 374.341L-501.679 221.465L-574 172.904L-472.749 54.1981L-541.454 -23.1391L-501.679 -95.081L-373.309 -136.448L-501.679 -321.699L-434.782 -373.857L-319.068 -411.626L-244.939 -373.857L-96.6801 -444L-62.3275 -384.648L55.1944 -373.857L105.818 -408.029L181.756 -373.857H201.644L259.503 -444L395.104 -411.626L418.608 -431.41L530.707 -444L541.556 -422.417L718.741 -373.857L782.023 -393.641L816.376 -373.857V-276.735L791.063 -244.361L830.841 -95.081H852.535L843.496 -8.74973L733.206 29.02Z" fill="#0F172A"/>
<path d="M116.667 -125.657L93.1631 -145.441M116.667 -125.657L55.1944 81.1768M116.667 -125.657L201.644 -69.9014M93.1631 -145.441L-20.7428 -111.268M93.1631 -145.441L44.3458 -255.152M93.1631 -145.441L141.98 -201.196M55.1944 81.1768H17.2259M55.1944 81.1768L73.2753 83.9871M201.644 -69.9014L221.534 54.1981M201.644 -69.9014L331.824 -125.657M-20.7428 -111.268L-76.7918 -42.9232M-20.7428 -111.268L-132.841 -264.145M44.3458 -255.152L-120.185 -276.735M44.3458 -255.152L55.1944 -373.857M141.98 -201.196L315.55 -244.361M141.98 -201.196L181.756 -373.857M-76.7918 -42.9232L-85.8317 -8.74972M-76.7918 -42.9232L-190.698 -136.448M-132.841 -264.145H-143.689M-132.841 -264.145L-120.185 -276.735M-85.8317 -8.74972L17.2259 81.1768M-85.8317 -8.74972L-190.698 54.1981M-190.698 -136.448L-208.778 -168.822M-190.698 -136.448L-244.939 29.02M17.2259 81.1768L-46.0552 221.465M-190.698 54.1981L-176.233 194.486M-190.698 54.1981L-244.939 29.02M-46.0552 221.465V340.168M-46.0552 221.465L-37.0149 222.748M73.2753 83.9871L170.907 99.1626M73.2753 83.9871L55.1944 235.852M221.534 54.1981L201.644 91.9678M221.534 54.1981L364.367 43.4071M331.824 -125.657L353.519 -118.462M331.824 -125.657L315.55 -244.361M201.644 91.9678L170.907 99.1626M201.644 91.9678L259.503 221.465M364.367 43.4071L411.375 140.528M364.367 43.4071L382.448 5.63743M170.907 99.1626L82.3145 250.241M259.503 221.465L250.461 270.025M259.503 221.465L315.55 201.681M82.3145 250.241L55.1944 235.852M82.3145 250.241L141.98 329.377M55.1944 235.852L-37.0149 222.748M-37.0149 222.748L-176.233 194.486M-46.0552 340.168L141.98 329.377M-46.0552 340.168L-62.3275 374.341M141.98 329.377H192.605M141.98 329.377L55.1944 413.909M250.461 270.025L192.605 329.377M250.461 270.025L346.286 304.196M315.55 201.681L411.375 140.528M315.55 201.681L429.456 270.025M192.605 329.377L245.038 462.47M346.286 304.196L429.456 270.025M346.286 304.196L418.608 428.296M245.038 462.47L402.336 467.866M245.038 462.47L221.534 507.434M55.1944 413.909L93.1631 516.427M55.1944 413.909L-37.0149 428.296M411.375 140.528L519.858 172.904M382.448 5.63743L353.519 -118.462M382.448 5.63743L519.858 -8.74972M519.858 172.904L546.979 127.939M519.858 172.904V270.025M429.456 270.025H519.858M519.858 270.025L537.939 304.196M418.608 428.296L402.336 467.866M418.608 428.296L537.939 304.196M402.336 467.866L364.367 651.318M402.336 467.866L498.161 525.42M537.939 304.196L657.269 374.341M364.367 651.318L331.824 680.095M364.367 651.318L546.979 636.928M498.161 525.42L546.979 636.928M498.161 525.42L646.42 413.909M221.534 507.434L201.644 516.427M221.534 507.434L331.824 680.095M201.644 516.427H93.1631M201.644 516.427L116.667 714.266M331.824 680.095V705.273M93.1631 516.427L17.2259 559.591M116.667 714.266L17.2259 559.591M116.667 714.266V755.634M17.2259 559.591H-8.08642M-37.0149 428.296L-62.3275 374.341M-37.0149 428.296L-62.3275 493.045M-62.3275 374.341L-201.546 350.959M-62.3275 493.045L-165.385 507.434M-62.3275 493.045L-8.08642 559.591M-201.546 350.959V221.465M-201.546 350.959L-190.698 493.045M-201.546 350.959L-337.148 392.327M-176.233 194.486L-201.546 221.465M-244.939 29.02L-319.068 5.63743M-201.546 221.465L-395.005 222.748M-395.005 222.748L-405.853 221.465M-395.005 222.748V250.241L-386.949 270.025M-190.698 493.045L-165.385 507.434M-190.698 493.045L-300.987 516.427M-337.148 392.327L-357.036 428.296M-337.148 392.327L-386.949 270.025M-165.385 507.434V600.957M-8.08642 559.591L-62.3275 627.936M-165.385 600.957L-208.778 651.318M-165.385 600.957L-62.3275 627.936M-300.987 516.427L-357.036 428.296M-300.987 516.427L-319.068 572.18M-62.3275 627.936V689.088M353.519 -118.462L471.041 -136.448M315.55 -244.361L324.592 -274.936M471.041 -136.448L530.707 -50.1173M471.041 -136.448L530.707 -255.152M519.858 -8.74972L546.979 99.1626M519.858 -8.74972L530.707 -50.1173M546.979 99.1626V127.939M546.979 99.1626L688.005 -69.9014M530.707 -50.1173L666.308 -95.0813M546.979 127.939L646.42 120.745M688.005 -69.9014L704.277 -62.7073M688.005 -69.9014L666.308 -95.0813M646.42 120.745L697.044 201.681M646.42 120.745L729.59 61.3929M657.269 374.341L697.044 201.681M657.269 374.341L646.42 413.909M657.269 374.341L798.295 323.98M657.269 374.341L780.214 507.434M697.044 201.681H791.063M646.42 413.909V636.928M798.295 323.98L791.063 201.681M798.295 323.98L852.535 340.168L830.841 493.045L780.214 507.434M780.214 507.434L762.133 572.18M791.063 201.681L830.841 127.939L729.59 61.3929M729.59 61.3929L733.206 29.02M666.308 -95.0813V-168.822M530.707 -255.152L579.524 -244.361M530.707 -255.152L382.448 -300.116M530.707 -255.152L541.555 -422.417M-143.689 -264.145L-208.778 -168.822M-143.689 -264.145L-153.648 -274.936M-120.185 -276.735L-62.3275 -384.648M-208.778 -168.822L-373.309 -136.448M-153.648 -274.936L-244.939 -373.857M-153.648 -274.936L-319.068 -244.361M-373.309 -136.448L-319.068 5.63743M-373.309 -136.448L-319.068 -244.361M-373.309 -136.448L-501.679 -95.0813L-541.454 -23.1391L-472.749 54.1981M-373.309 -136.448L-501.679 -321.699L-434.782 -373.857L-319.068 -411.626M-319.068 5.63743L-382.349 73.982M-382.349 73.982L-405.853 221.465M-382.349 73.982L-472.749 54.1981M-405.853 221.465H-501.679M-472.749 54.1981L-574 172.904L-501.679 221.465M-501.679 221.465L-541.454 374.341L-483.598 392.327M-386.949 270.025L-483.598 392.327M55.1944 -373.857L105.819 -408.029L181.756 -373.857M55.1944 -373.857L-62.3275 -384.648M-62.3275 -384.648L-96.6801 -444L-244.939 -373.857M324.592 -274.936L382.448 -300.116M324.592 -274.936L201.644 -373.857M181.756 -373.857H201.644M704.277 -62.7073L733.206 29.02M704.277 -62.7073L830.841 -95.0813M733.206 29.02L843.496 -8.74972L852.535 -95.0813H830.841M830.841 -95.0813L791.063 -244.361M666.308 -168.822L579.524 -244.361M666.308 -168.822L791.063 -244.361M579.524 -244.361L718.741 -373.857M791.063 -244.361L816.376 -276.735V-373.857L782.023 -393.641L718.741 -373.857M718.741 -373.857L541.555 -422.417M382.448 -300.116L395.104 -411.626M541.555 -422.417L530.707 -444L418.608 -431.41L395.104 -411.626M395.104 -411.626L259.503 -444L201.644 -373.857M-244.939 -373.857L-319.068 -411.626M-357.036 428.296L-416.701 440.888M-319.068 572.18L-300.987 627.936M-319.068 572.18H-447.438M-416.701 440.888L-483.598 392.327M-416.701 440.888L-472.749 525.42L-447.438 572.18M-208.778 651.318L-300.987 627.936M-208.778 651.318L-165.385 755.634L-62.3275 689.088M-300.987 627.936L-357.036 705.273L-461.902 689.088L-447.438 572.18M-62.3275 689.088L93.1631 764.627L116.667 755.634M116.667 755.634L141.98 764.627L331.824 705.273M331.824 705.273L364.367 739.446L519.858 797M519.858 797L546.979 636.928M519.858 797H657.269M546.979 636.928H646.42M646.42 636.928L673.54 645.921M673.54 645.921L762.133 572.18M673.54 645.921L657.269 797M673.54 645.921L733.206 755.634M-319.068 -411.626V-244.361M762.133 572.18L843.496 617.145L867 755.634H733.206M733.206 755.634L718.741 786.209L657.269 797" stroke="#1E3A8A" stroke-opacity="0.24" stroke-width="4"/>
</g>
<path d="M173 1.5L177.5 7L179.825 3.46387L188.663 1.5H350.278L372.288 8.19824L374.494 15.6992L371.5 153.968L371.499 154.017L371.501 154.065L374.5 223.043V359.08L365.154 374.5H269.093L253.187 372.512L253.036 372.493L252.885 372.505L226.948 374.5H201.159L182.817 370.534L181.953 370.347L181.371 371.013L178.319 374.5H15.0811L13.4229 369.525L13.2939 369.14L12.9873 368.871L1.50488 358.824L3.5 104.012V103.965L1.5166 18.209L22.5234 1.5H173Z" stroke="#172554" stroke-width="4"/>
</g>
</g>
<defs>
<clipPath id="clip0_2724_120">
<rect width="376" height="376" fill="white"/>
</clipPath>
</defs>
</svg>
