<svg width="376" height="376" viewBox="0 0 376 376" fill="none" xmlns="http://www.w3.org/2000/svg">
<g clip-path="url(#clip0_2714_196)">
<mask id="mask0_2714_196" style="mask-type:alpha" maskUnits="userSpaceOnUse" x="0" y="0" width="376" height="376">
<path d="M0 17.5L22 0H177.5L179.5 2L188.5 0H350.5L373.5 7L376 15.5L373 154L376 223V359.5L366 376H269L253 374L227 376H201L182.5 372L179 376H14L12 370L8.82149e-06 359.5L2.00001 104L0 17.5Z" fill="#D9D9D9"/>
</mask>
<g mask="url(#mask0_2714_196)">
<path d="M382.241 117.199L380.788 130.216L421.471 156.974L405.488 186.625L408.394 235.801L430.188 242.31L421.471 303.781L401.129 309.567L393.865 335.601L426.556 353.681L436 409.367H382.241L376.429 421.661L351.729 426H296.517L234.04 402.858L220.964 389.117L144.684 412.983L134.513 409.367L125.069 412.983L62.5922 382.609L21.1832 409.367L3.7478 367.422L-33.3024 358.02L-55.8231 389.117L-97.9586 382.609L-92.1468 335.601L-102.317 316.799L-79.7967 282.809L-106.676 263.283L-129.923 256.051L-113.941 194.58L-143 175.054L-102.317 127.323L-129.923 96.2261L-113.941 67.2986L-62.3614 50.6652L-113.941 -23.8232L-87.0615 -44.7957L-40.5671 -59.9826L-10.7817 -44.7957L48.7892 -73L62.5922 -49.1348L109.813 -44.7957L130.154 -58.5362L160.666 -44.7957H168.657L191.905 -73L246.39 -59.9826L255.834 -67.9377L300.876 -73L305.235 -64.3217L376.429 -44.7957L401.856 -52.7507L415.659 -44.7957V-5.74348L405.488 7.27391L421.471 67.2986H430.188L426.556 102.012L382.241 117.199Z" fill="#0F172A"/>
<path d="M134.513 55.0043L125.069 47.0493M134.513 55.0043L109.813 138.171M134.513 55.0043L168.657 77.4232M125.069 47.0493L79.3011 60.7899M125.069 47.0493L105.454 2.93478M125.069 47.0493L144.684 24.6304M79.3011 60.7899L56.7804 88.271M79.3011 60.7899L34.2597 -0.68116M56.7804 88.271L53.1481 102.012M56.7804 88.271L11.0125 50.6652M53.1481 102.012L94.5571 138.171M53.1481 102.012L11.0125 127.323M94.5571 138.171H109.813M94.5571 138.171L69.1305 194.58M109.813 138.171L117.078 139.301M168.657 77.4232L176.649 127.323M168.657 77.4232L220.964 55.0043M176.649 127.323L168.657 142.51M176.649 127.323L234.04 122.984M168.657 142.51L156.307 145.403M168.657 142.51L191.905 194.58M156.307 145.403L117.078 139.301M156.307 145.403L120.71 206.151M109.813 200.365L117.078 139.301M109.813 200.365L120.71 206.151M109.813 200.365L72.7629 195.096M69.1305 194.58V242.31M69.1305 194.58L72.7629 195.096M120.71 206.151L144.684 237.971M191.905 194.58L188.272 214.106M191.905 194.58L214.425 186.625M188.272 214.106L165.025 237.971M188.272 214.106L226.775 227.846M165.025 237.971H144.684M165.025 237.971L186.093 291.487M144.684 237.971L109.813 271.961M144.684 237.971L69.1305 242.31M234.04 122.984L252.928 162.036M234.04 122.984L241.305 107.797M252.928 162.036L214.425 186.625M252.928 162.036L296.517 175.054M214.425 186.625L260.193 214.106M260.193 214.106L226.775 227.846M260.193 214.106H296.517M226.775 227.846L255.834 277.746M255.834 277.746L249.296 293.657M255.834 277.746L303.782 227.846M249.296 293.657L186.093 291.487M249.296 293.657L234.04 367.422M249.296 293.657L287.799 316.799M186.093 291.487L176.649 309.567M176.649 309.567L168.657 313.183M176.649 309.567L220.964 378.993M168.657 313.183H125.069M168.657 313.183L134.513 392.733M125.069 313.183L109.813 271.961M125.069 313.183L94.5571 330.539M109.813 271.961L72.7629 277.746M72.7629 277.746L62.5922 256.051M72.7629 277.746L62.5922 303.781M62.5922 256.051L69.1305 242.31M62.5922 256.051L6.6537 246.649M11.0125 127.323L16.8243 183.732M11.0125 127.323L-10.7817 117.199M16.8243 183.732L72.7629 195.096M16.8243 183.732L6.6537 194.58M6.6537 194.58V246.649M6.6537 194.58L-71.079 195.096M6.6537 246.649L11.0125 303.781M6.6537 246.649L-47.8319 263.283M62.5922 303.781L21.1832 309.567M62.5922 303.781L84.3865 330.539M21.1832 309.567L11.0125 303.781M21.1832 309.567V347.172M11.0125 303.781L-33.3024 313.183M84.3865 330.539H94.5571M84.3865 330.539L62.5922 358.02M94.5571 330.539L134.513 392.733M220.964 55.0043L229.681 57.8971M220.964 55.0043L214.425 7.27391M229.681 57.8971L241.305 107.797M229.681 57.8971L276.902 50.6652M241.305 107.797L296.517 102.012M296.517 102.012L307.414 145.403M296.517 102.012L300.876 85.3783M307.414 145.403V156.974M307.414 145.403L364.079 77.4232M307.414 156.974L296.517 175.054M307.414 156.974L347.37 154.081M296.517 175.054V214.106M296.517 214.106L303.782 227.846M303.782 227.846L351.729 256.051M351.729 256.051L367.711 186.625M351.729 256.051L347.37 271.961M351.729 256.051L408.394 235.801M351.729 256.051L401.129 309.567M367.711 186.625L347.37 154.081M367.711 186.625H405.488M347.37 154.081L380.788 130.216M300.876 85.3783L276.902 50.6652M300.876 85.3783L355.361 67.2985M276.902 50.6652L300.876 2.93478M34.2597 -0.68116H29.9009M34.2597 -0.68116L39.345 -5.74348M29.9009 -0.68116L3.74781 37.6478M29.9009 -0.68116L25.8993 -5.02029M3.74781 37.6478L11.0125 50.6652M3.74781 37.6478L-62.3614 50.6652M11.0125 50.6652L-10.7817 117.199M-10.7817 117.199L-40.5671 107.797M-40.5671 107.797L-65.9937 135.278M-40.5671 107.797L-62.3614 50.6652M-65.9937 135.278L-75.4379 194.58M-65.9937 135.278L-102.317 127.323M-75.4379 194.58L-71.079 195.096M-75.4379 194.58H-113.941M-71.079 195.096V206.151L-67.8421 214.106M105.454 2.93478L39.345 -5.74348M105.454 2.93478L109.813 -44.7957M39.345 -5.74348L62.5922 -49.1348M214.425 7.27391L144.684 24.6304M214.425 7.27391L218.058 -5.02029M144.684 24.6304L160.666 -44.7957M364.079 77.4232L370.617 80.3159M364.079 77.4232L355.361 67.2985M370.617 80.3159L382.241 117.199M370.617 80.3159L421.471 67.2985M382.241 117.199L380.788 130.216M382.241 117.199L426.556 102.012L430.188 67.2985H421.471M380.788 130.216L421.471 156.974L405.488 186.625M355.361 67.2985V37.6478M355.361 37.6478L320.491 7.27391M355.361 37.6478L405.488 7.27391M320.491 7.27391L300.876 2.93478M320.491 7.27391L376.429 -44.7957M300.876 2.93478L241.305 -15.1449M300.876 2.93478L305.235 -64.3217M241.305 -15.1449L218.058 -5.02029M241.305 -15.1449L246.39 -59.9826M218.058 -5.02029L168.657 -44.7957M168.657 -44.7957H160.666M168.657 -44.7957L191.905 -73L246.39 -59.9826M160.666 -44.7957L130.154 -58.5362L109.813 -44.7957M109.813 -44.7957L62.5922 -49.1348M62.5922 -49.1348L48.7892 -73L-10.7817 -44.7957M-47.8319 263.283L-55.8231 277.746M-47.8319 263.283L-67.8421 214.106M-33.3024 313.183L-55.8231 277.746M-33.3024 313.183L-40.5671 335.601M-55.8231 277.746L-79.7967 282.809M21.1832 347.172L3.74781 367.422M21.1832 347.172L62.5922 358.02M3.74781 367.422L-33.3024 358.02M3.74781 367.422L21.1832 409.367L62.5922 382.609M-33.3024 358.02L-40.5671 335.601M-33.3024 358.02L-55.8231 389.117L-97.9586 382.609L-92.1468 335.601M-40.5671 335.601H-92.1468M62.5922 358.02V382.609M134.513 392.733V409.367M134.513 409.367L125.069 412.983L62.5922 382.609M134.513 409.367L144.684 412.983L220.964 389.117M220.964 389.117V378.993M220.964 389.117L234.04 402.858L296.517 426M220.964 378.993L234.04 367.422M234.04 367.422L307.414 361.636M307.414 361.636L287.799 316.799M307.414 361.636H347.37M307.414 361.636L296.517 426M287.799 316.799L347.37 271.961M347.37 271.961V361.636M347.37 361.636L358.267 365.252M246.39 -59.9826L255.834 -67.9377L300.876 -73L305.235 -64.3217M-10.7817 -44.7957L25.8993 -5.02029M-10.7817 -44.7957L-40.5671 -59.9826M25.8993 -5.02029L-40.5671 7.27391M-40.5671 7.27391L-62.3614 50.6652M-40.5671 7.27391V-59.9826M-62.3614 50.6652L-113.941 67.2985L-129.923 96.2261L-102.317 127.323M-62.3614 50.6652L-113.941 -23.8232L-87.0615 -44.7957L-40.5671 -59.9826M-102.317 127.323L-143 175.054L-113.941 194.58M405.488 186.625L408.394 235.801M408.394 235.801L430.188 242.31L421.471 303.781L401.129 309.567M401.129 309.567L393.864 335.601M393.864 335.601L358.267 365.252M393.864 335.601L426.556 353.681L436 409.367H382.241M358.267 365.252L351.729 426M358.267 365.252L382.241 409.367M305.235 -64.3217L376.429 -44.7957M376.429 -44.7957L401.856 -52.7507L415.659 -44.7957V-5.74348L405.488 7.27391M405.488 7.27391L421.471 67.2985M-113.941 194.58L-129.923 256.051L-106.676 263.283M-106.676 263.283L-67.8421 214.106M-106.676 263.283L-79.7967 282.809M-79.7967 282.809L-102.317 316.799L-92.1468 335.601M296.517 426H351.729M351.729 426L376.429 421.661L382.241 409.367" stroke="#1E3A8A" stroke-opacity="0.24" stroke-width="2"/>
</g>
<path d="M176.879 1.5L179.021 3.64258L179.825 3.46387L188.663 1.5H350.278L372.288 8.19824L374.494 15.6992L371.5 153.968L371.499 154.017L371.501 154.065L374.5 223.043V359.08L365.154 374.5H269.093L253.187 372.512L253.036 372.493L252.885 372.505L226.948 374.5H201.159L182.817 370.534L181.953 370.347L181.371 371.013L178.319 374.5H15.0811L13.4229 369.525L13.2939 369.14L12.9873 368.871L1.50488 358.824L3.5 104.012V103.965L1.5166 18.209L22.5234 1.5H176.879Z" stroke="#172554" stroke-width="3"/>
</g>
<defs>
<clipPath id="clip0_2714_196">
<rect width="376" height="376" fill="white"/>
</clipPath>
</defs>
</svg>
