<svg width="386" height="336" viewBox="0 0 386 336" fill="none" xmlns="http://www.w3.org/2000/svg">
<g clip-path="url(#clip0_2713_193)">
<path d="M390.555 131.091L389.272 142.596L425.177 166.243L411.072 192.448L413.636 235.909L432.871 241.661L425.177 295.987L407.225 301.1L400.813 324.109L429.665 340.087L438 389.3H390.555L385.425 400.165L363.626 404H314.898L259.759 383.548L248.218 371.404L180.897 392.496L171.921 389.3L163.586 392.496L108.447 365.652L71.9009 389.3L56.5132 352.23L23.8143 343.922L3.93852 371.404L-33.2484 365.652L-28.1192 324.109L-37.0954 307.491L-17.2196 277.452L-40.9423 260.196L-61.4592 253.804L-47.3538 199.478L-73 182.222L-37.0954 140.039L-61.4592 112.557L-47.3538 86.9913L-1.83187 72.2913L-47.3538 6.46087L-23.6311 -12.0739L17.4028 -25.4957L43.6901 -12.0739L96.2648 -37L108.447 -15.9087L150.122 -12.0739L168.074 -24.2174L195.003 -12.0739H202.055L222.572 -37L270.659 -25.4957L278.994 -32.5261L318.745 -37L322.592 -29.3304L385.425 -12.0739L407.866 -19.1043L420.048 -12.0739V22.4391L411.072 33.9435L425.177 86.9913H432.871L429.665 117.67L390.555 131.091Z" fill="#60A5FA"/>
<path d="M171.921 76.1261L163.586 69.0956M171.921 76.1261L150.122 149.626M171.921 76.1261L202.055 95.9391M163.586 69.0956L123.193 81.2391M163.586 69.0956L146.275 30.1087M163.586 69.0956L180.897 49.2826M123.193 81.2391L103.317 105.526M123.193 81.2391L83.4417 26.913M103.317 105.526L100.112 117.67M103.317 105.526L62.9247 72.2913M100.112 117.67L136.657 149.626M100.112 117.67L62.9247 140.039M136.657 149.626H150.122M136.657 149.626L114.217 199.478M150.122 149.626L156.533 150.625M202.055 95.9391L209.108 140.039M202.055 95.9391L248.218 76.1261M209.108 140.039L202.055 153.461M209.108 140.039L259.759 136.204M202.055 153.461L191.156 156.017M202.055 153.461L222.572 199.478M191.156 156.017L156.533 150.625M191.156 156.017L159.739 209.704M150.122 204.591L156.533 150.625M150.122 204.591L159.739 209.704M150.122 204.591L117.423 199.935M114.217 199.478V241.661M114.217 199.478L117.423 199.935M159.739 209.704L180.897 237.826M222.572 199.478L219.366 216.735M222.572 199.478L242.448 192.448M219.366 216.735L198.849 237.826M219.366 216.735L253.348 228.878M198.849 237.826H180.897M198.849 237.826L217.443 285.122M180.897 237.826L150.122 267.865M180.897 237.826L114.217 241.661M259.759 136.204L276.429 170.717M259.759 136.204L266.171 122.783M276.429 170.717L242.448 192.448M276.429 170.717L314.898 182.222M242.448 192.448L282.841 216.735M282.841 216.735L253.348 228.878M282.841 216.735H314.898M253.348 228.878L278.994 272.978M278.994 272.978L273.223 287.039M278.994 272.978L321.31 228.878M273.223 287.039L217.443 285.122M273.223 287.039L259.759 352.23M273.223 287.039L307.205 307.491M217.443 285.122L209.108 301.1M209.108 301.1L202.055 304.296M209.108 301.1L248.218 362.457M202.055 304.296H163.586M202.055 304.296L171.921 374.6M163.586 304.296L150.122 267.865M163.586 304.296L136.657 319.635M150.122 267.865L117.423 272.978M117.423 272.978L108.447 253.804M117.423 272.978L108.447 295.987M108.447 253.804L114.217 241.661M108.447 253.804L59.0778 245.496M62.9247 140.039L68.054 189.891M62.9247 140.039L43.6901 131.091M68.054 189.891L117.423 199.935M68.054 189.891L59.0778 199.478M59.0778 199.478V245.496M59.0778 199.478L-9.52572 199.935M59.0778 245.496L62.9247 295.987M59.0778 245.496L10.9912 260.196M108.447 295.987L71.9009 301.1M108.447 295.987L127.681 319.635M71.9009 301.1L62.9247 295.987M71.9009 301.1V334.335M62.9247 295.987L23.8143 304.296M127.681 319.635H136.657M127.681 319.635L108.447 343.922M136.657 319.635L171.921 374.6M248.218 76.1261L255.912 78.6826M248.218 76.1261L242.448 33.9435M255.912 78.6826L266.171 122.783M255.912 78.6826L297.587 72.2913M266.171 122.783L314.898 117.67M314.898 117.67L324.516 156.017M314.898 117.67L318.745 102.97M324.516 156.017V166.243M324.516 156.017L374.526 95.9391M324.516 166.243L314.898 182.222M324.516 166.243L359.779 163.687M314.898 182.222V216.735M314.898 216.735L321.31 228.878M321.31 228.878L363.626 253.804M363.626 253.804L377.732 192.448M363.626 253.804L359.779 267.865M363.626 253.804L413.636 235.909M363.626 253.804L407.225 301.1M377.732 192.448L359.779 163.687M377.732 192.448H411.072M359.779 163.687L389.272 142.596M318.745 102.97L297.587 72.2913M318.745 102.97L366.832 86.9913M297.587 72.2913L318.745 30.1087M83.4417 26.913H79.5947M83.4417 26.913L87.9297 22.4391M79.5947 26.913L56.5132 60.787M79.5947 26.913L76.0631 23.0783M56.5132 60.787L62.9247 72.2913M56.5132 60.787L-1.83187 72.2913M62.9247 72.2913L43.6901 131.091M43.6901 131.091L17.4028 122.783M17.4028 122.783L-5.03764 147.07M17.4028 122.783L-1.83187 72.2913M-5.03764 147.07L-13.3726 199.478M-5.03764 147.07L-37.0954 140.039M-13.3726 199.478L-9.52572 199.935M-13.3726 199.478H-47.3538M-9.52572 199.935V209.704L-6.66893 216.735M146.275 30.1087L87.9297 22.4391M146.275 30.1087L150.122 -12.0739M87.9297 22.4391L108.447 -15.9087M242.448 33.9435L180.897 49.2826M242.448 33.9435L245.654 23.0783M180.897 49.2826L195.003 -12.0739M374.526 95.9391L380.296 98.4956M374.526 95.9391L366.832 86.9913M380.296 98.4956L390.555 131.091M380.296 98.4956L425.177 86.9913M390.555 131.091L389.272 142.596M390.555 131.091L429.665 117.67L432.871 86.9913H425.177M389.272 142.596L425.177 166.243L411.072 192.448M366.832 86.9913V60.787M366.832 60.787L336.056 33.9435M366.832 60.787L411.072 33.9435M336.056 33.9435L318.745 30.1087M336.056 33.9435L385.425 -12.0739M318.745 30.1087L266.171 14.1304M318.745 30.1087L322.592 -29.3304M266.171 14.1304L245.654 23.0783M266.171 14.1304L270.659 -25.4957M245.654 23.0783L202.055 -12.0739M202.055 -12.0739H195.003M202.055 -12.0739L222.572 -37L270.659 -25.4957M195.003 -12.0739L168.074 -24.2174L150.122 -12.0739M150.122 -12.0739L108.447 -15.9087M108.447 -15.9087L96.2647 -37L43.6901 -12.0739M10.9912 260.196L3.93852 272.978M10.9912 260.196L-6.66893 216.735M23.8143 304.296L3.93852 272.978M23.8143 304.296L17.4028 324.109M3.93852 272.978L-17.2196 277.452M71.9009 334.335L56.5132 352.23M71.9009 334.335L108.447 343.922M56.5132 352.23L23.8143 343.922M56.5132 352.23L71.9009 389.3L108.447 365.652M23.8143 343.922L17.4028 324.109M23.8143 343.922L3.93852 371.404L-33.2484 365.652L-28.1192 324.109M17.4028 324.109H-28.1192M108.447 343.922V365.652M171.921 374.6V389.3M171.921 389.3L163.586 392.496L108.447 365.652M171.921 389.3L180.897 392.496L248.218 371.404M248.218 371.404V362.457M248.218 371.404L259.759 383.548L314.898 404M248.218 362.457L259.759 352.23M259.759 352.23L324.516 347.117M324.516 347.117L307.205 307.491M324.516 347.117H359.779M324.516 347.117L314.898 404M307.205 307.491L359.779 267.865M359.779 267.865V347.117M359.779 347.117L369.397 350.313M270.659 -25.4957L278.994 -32.5261L318.745 -37L322.592 -29.3304M43.6901 -12.0739L76.0631 23.0783M43.6901 -12.0739L17.4028 -25.4957M76.0631 23.0783L17.4028 33.9435M17.4028 33.9435L-1.83187 72.2913M17.4028 33.9435V-25.4957M-1.83187 72.2913L-47.3538 86.9913L-61.4592 112.557L-37.0954 140.039M-1.83187 72.2913L-47.3538 6.46087L-23.6311 -12.0739L17.4028 -25.4957M-37.0954 140.039L-73 182.222L-47.3538 199.478M411.072 192.448L413.636 235.909M413.636 235.909L432.871 241.661L425.177 295.987L407.225 301.1M407.225 301.1L400.813 324.109M400.813 324.109L369.397 350.313M400.813 324.109L429.665 340.087L438 389.3H390.555M369.397 350.313L363.626 404M369.397 350.313L390.555 389.3M322.592 -29.3304L385.425 -12.0739M385.425 -12.0739L407.866 -19.1043L420.048 -12.0739V22.4391L411.072 33.9435M411.072 33.9435L425.177 86.9913M-47.3538 199.478L-61.4592 253.804L-40.9423 260.196M-40.9423 260.196L-6.66893 216.735M-40.9423 260.196L-17.2196 277.452M-17.2196 277.452L-37.0954 307.491L-28.1192 324.109M314.898 404H363.626M363.626 404L385.425 400.165L390.555 389.3" stroke="#93C5FD" stroke-width="2"/>
</g>
<defs>
<clipPath id="clip0_2713_193">
<rect width="385.5" height="336" fill="white"/>
</clipPath>
</defs>
</svg>
