<svg width="66" height="74" viewBox="0 0 66 74" fill="none" xmlns="http://www.w3.org/2000/svg">
<rect x="1.49977" y="10" width="64" height="64" rx="16" fill="#3B82F6"/>
<g clip-path="url(#clip0_2703_824)">
<mask id="path-2-inside-1_2703_824" fill="white">
<path d="M1.49977 20C1.49977 11.1634 8.66322 4 17.4998 4H49.4998C58.3363 4 65.4998 11.1634 65.4998 20V52C65.4998 60.8366 58.3363 68 49.4998 68H17.4998C8.66322 68 1.49977 60.8366 1.49977 52V20Z"/>
</mask>
<path d="M1.49977 20C1.49977 11.1634 8.66322 4 17.4998 4H49.4998C58.3363 4 65.4998 11.1634 65.4998 20V52C65.4998 60.8366 58.3363 68 49.4998 68H17.4998C8.66322 68 1.49977 60.8366 1.49977 52V20Z" fill="#94A3B8"/>
<path d="M1.49977 20H17.1218M32.7439 20H49.1218M32.7439 20H17.1218M32.7439 20V4M65.4998 20H49.1218M49.1218 20V52M49.1218 52H65.4998M49.1218 52H33.1218M17.1218 20V52M17.1218 52H1.49977M17.1218 52H33.1218M33.1218 52V68" stroke="#64748B" stroke-width="2"/>
</g>
<path d="M39.9451 6.24219C39.2518 6.27092 38.542 6.35225 37.8396 6.48828L36.5271 6.76172L35.2146 7.00781C34.145 7.21418 33.0688 7.32101 31.9881 7.33594L29.3631 7.39062C28.7569 7.39889 28.1319 7.45732 27.5037 7.60938L26.1912 7.9375L24.8787 8.23828C23.4878 8.57433 22.0656 8.60358 20.6677 8.29297L19.3552 7.99219L18.9724 7.91016C18.9148 7.93809 18.8663 7.99517 18.8084 8.01953C17.7564 8.45996 16.8176 8.26674 16.5662 8.21094C15.9272 8.06849 15.3581 7.75554 15.0896 7.60938L14.3513 7.22656L14.324 7.19922L13.3396 7.60938L12.1365 8.10156L11.5623 9.38672L11.0154 10.6992C10.5003 11.8908 9.79154 12.9972 8.88258 13.9258L8.06227 14.7734L7.21461 15.6211C6.71449 16.132 6.15927 16.7483 5.54665 17.4531L4.56227 18.5742L4.12477 19.0664L4.42555 19.6953L5.0818 21.0352C5.84594 22.6223 6.07528 24.3989 5.57399 26.1758L5.19118 27.4883L4.83571 28.8008C4.61501 29.584 4.4146 30.3744 4.26149 31.1523L4.0154 32.4648L3.74196 33.7773C3.61772 34.4133 3.57072 35.0415 3.5779 35.6641V36.9766L3.60524 38.2891C3.60814 38.5259 3.66742 38.8568 3.90602 39.3008L5.3279 41.9258C6.23747 43.6142 6.45257 45.539 5.7654 47.4219L5.27321 48.7344L4.80836 50.0469C4.57892 50.6766 4.40458 51.3192 4.31618 51.9883L4.12477 53.3828L4.04274 54.0664L6.09352 55.5703C7.67656 56.715 8.69741 58.3578 8.99196 60.3008L9.21071 61.8047L9.37477 63.0352L10.3045 63.5L11.5896 64.1562L11.6443 64.1836C11.659 64.1824 11.7077 64.1682 11.7537 64.1562L13.1482 63.8008L14.5427 63.418C16.2998 62.9554 18.0894 63.1529 19.7107 63.9648L20.9959 64.6211L21.9529 65.0859L22.992 64.5391L24.3045 63.8281L25.6443 63.2812C26.5775 63.0084 27.5469 62.9443 28.5154 63.1172L29.9646 63.5547L31.2771 64.1289L32.4529 64.6211L33.6834 64.0742L34.9959 63.4727C36.589 62.7473 38.219 62.7701 39.6716 63.3359L41.0662 64.0742L42.3787 64.9766L43.0349 65.4141L43.6912 65.0039L45.0037 64.1289C46.3419 63.2329 47.9504 62.6156 49.7341 62.7344L50.992 62.8438L52.2224 62.9258C52.9926 62.978 53.8548 63.0087 54.7927 63.0352L56.242 63.0898H57.3904L58.074 62.2695L58.9216 61.1758C59.2955 60.6959 59.5842 60.2123 59.7693 59.7266L60.699 57.2109C61.0211 56.3626 61.3677 55.5036 61.7107 54.6406L62.2029 53.3828L62.7224 52.0977V52.0703C62.7202 52.0598 62.7053 52.0446 62.6951 52.0156L62.2302 50.6758L61.7654 49.3633C61.2433 47.9214 61.0864 46.4031 61.3826 44.8789L61.6287 43.5664L61.9021 42.2539C62.0918 41.2789 62.3348 40.2968 62.6131 39.3281L62.9685 38.0156L63.3513 36.7031C63.4063 36.5076 63.419 36.3433 63.3513 36.1289L62.9138 34.8164L62.5037 33.5039C62.1501 32.403 61.9041 31.2739 61.7927 30.1406L61.656 28.8281L61.5466 27.5156C61.4219 26.241 61.5169 24.9613 61.8201 23.7148L62.1209 22.4023L62.449 21.0898C62.5384 20.7158 62.5504 20.3631 62.4763 19.9961L61.9295 17.3711C61.8809 17.1314 61.8034 16.9512 61.656 16.7969L60.7537 15.8398L59.824 14.8828C58.8942 13.9075 58.1675 12.7692 57.6638 11.5195L56.6248 8.94922C56.5155 8.678 56.3519 8.42522 56.0506 8.18359L54.9021 7.28125L53.7537 6.35156C53.6178 6.24505 53.5233 6.21507 53.3709 6.21484L51.9216 6.24219H50.4724C49.4702 6.24823 48.4949 6.24243 47.574 6.21484L46.2615 6.16016L44.949 6.13281C44.1593 6.10935 43.3599 6.10061 42.5701 6.13281L39.9451 6.24219ZM20.8865 1.15625L22.199 1.45703C22.5481 1.5343 22.882 1.54274 23.2381 1.45703L25.8631 0.800781C26.9806 0.530428 28.1142 0.407007 29.2537 0.390625L31.8787 0.335938C32.5425 0.326883 33.227 0.275286 33.9021 0.144531L35.2146 -0.128906L36.5271 -0.375C37.5699 -0.576679 38.6197 -0.687585 39.6716 -0.730469L42.2966 -0.839844C43.2535 -0.878817 44.2108 -0.895856 45.1677 -0.867188L46.4802 -0.839844L47.7927 -0.785156C48.6193 -0.760403 49.4942 -0.75233 50.4177 -0.757812H51.867L53.3162 -0.785156C55.0842 -0.79581 56.7207 -0.212192 58.1013 0.882812L60.3982 2.6875C61.6109 3.65041 62.5483 4.87466 63.1326 6.32422L63.6521 7.60938L64.1716 8.92188C64.362 9.39141 64.5967 9.77092 64.8826 10.0703L65.8123 11.0273L66.7146 11.9844C67.7859 13.1073 68.4859 14.4622 68.7927 15.9766L69.3396 18.6016C69.62 19.9855 69.5911 21.3866 69.2576 22.7578L68.6013 25.3828C68.4806 25.8812 68.4464 26.3615 68.492 26.832L68.7654 29.457C68.826 30.0738 68.9671 30.722 69.1756 31.3711L69.9959 33.9961C70.4843 35.5225 70.522 37.0987 70.0779 38.6445L69.6951 39.957L69.3396 41.2695C69.1161 42.0474 68.9154 42.8222 68.7654 43.5938L68.5193 44.9062L68.2459 46.2188C68.2026 46.4415 68.2171 46.6774 68.3279 46.9844L68.8201 48.2969L69.2849 49.6094C69.8883 51.2721 69.8912 53.0323 69.2302 54.6953L68.7107 55.9531L68.2185 57.2383C67.8892 58.0669 67.5699 58.887 67.2615 59.6992L66.7693 60.957L66.3045 62.1875C65.8576 63.3646 65.2257 64.4667 64.4451 65.4688L63.5701 66.5898L62.7224 67.6836C61.429 69.3438 59.5634 70.1731 57.5271 70.1172L56.0506 70.0625L54.574 70.0352C53.5623 70.0064 52.6052 69.9579 51.7302 69.8984L49.2693 69.7344C49.2096 69.7552 49.0991 69.8295 48.9138 69.9531L46.2888 71.7031C45.3877 72.3064 44.2536 72.7255 42.9802 72.7148C41.7126 72.7024 40.6129 72.2568 39.7263 71.6484L38.4138 70.7461L37.4021 70.0352L36.5818 70.4453L35.2693 71.0469C33.51 71.845 31.6155 71.8685 29.8279 71.1016L28.5154 70.5547L27.449 70.0898L26.3006 70.6914L24.9881 71.4023C23.1455 72.3969 21.0821 72.471 19.1638 71.5117L17.8513 70.8828L16.5662 70.2266C16.5057 70.1963 16.471 70.1746 16.4568 70.1719C16.4565 70.1718 16.4036 70.1772 16.3201 70.1992L14.9256 70.5547L13.531 70.9375C11.7946 71.392 10.0354 71.2101 8.41774 70.3906L7.15993 69.7617L5.87477 69.1055C3.94582 68.1219 2.81726 66.3908 2.51149 64.375L2.29274 62.8711L2.07399 61.3398C2.06814 61.3045 2.04746 61.2875 2.04665 61.2852L1.99196 61.2578L0.76149 60.3555L-0.496323 59.4531C-1.29028 58.879 -2.04033 58.1025 -2.51976 57.0742C-3.0062 56.0283 -3.12023 54.9203 -2.9846 53.875L-2.7932 52.4805L-2.62914 51.0859C-2.4744 49.9073 -2.18829 48.7561 -1.78148 47.6406L-1.28929 46.3281L-0.879135 45.1797L-1.53539 43.9492L-2.24632 42.6367C-2.94889 41.3326 -3.37621 39.8836 -3.39476 38.3711L-3.4221 37.0586V35.7461C-3.43508 34.6288 -3.33855 33.5139 -3.12132 32.4102L-2.84789 31.0977L-2.60179 29.7852C-2.41122 28.8173 -2.18972 27.8493 -1.9182 26.8867L-1.53539 25.5742L-1.17992 24.2617H-1.15257C-1.1527 24.2605 -1.17176 24.2348 -1.17992 24.207C-1.18882 24.1784 -1.206 24.1297 -1.2346 24.0703L-1.89085 22.7305L-2.51976 21.3906C-2.97123 20.4529 -3.25416 19.3214 -3.09398 18.1094C-2.93263 16.9008 -2.38269 15.889 -1.69945 15.1016L0.269302 12.8594C0.951084 12.0751 1.59551 11.355 2.21071 10.7266L3.05836 9.87891L3.87868 9.03125C4.0879 8.81752 4.35356 8.45621 4.58961 7.91016L5.13649 6.625L5.71071 5.3125C6.4378 3.63247 7.7226 2.34767 9.4568 1.64844L10.7146 1.12891L11.9998 0.609375C12.9024 0.246642 14.2041 -0.100041 15.5818 0.171875L16.9763 0.664062L17.0857 0.746094C17.4999 0.679238 17.8352 0.630167 17.9881 0.636719C18.5262 0.660876 19.1013 0.777788 19.574 0.882812L20.8865 1.15625Z" fill="#93C5FD" mask="url(#path-2-inside-1_2703_824)"/>
<mask id="mask0_2703_824" style="mask-type:alpha" maskUnits="userSpaceOnUse" x="1" y="10" width="65" height="64">
<rect x="1.49977" y="10" width="64" height="64" rx="16" fill="#64748B"/>
</mask>
<g mask="url(#mask0_2703_824)">
<path d="M38.9998 74C42.4998 73.5 40.9998 70 41.853 68L1.49977 54V74H38.9998Z" fill="white" fill-opacity="0.38"/>
</g>
<path d="M35.7076 0C32.8712 0 21.9998 2.5 17.4998 4L31.9998 5L58.4998 9.16667C57.4868 6.92593 53.9413 2.44444 47.8634 2.44444C40.266 2.44444 39.253 0 35.7076 0Z" fill="white"/>
<path d="M26.4405 55.9255C32.8136 61.1101 29.4053 52.2525 41.1495 65.8005C42.8543 67.7671 41.5987 69.1391 38.9998 69H23.9998C22.3308 68.9107 13.6743 68.969 11.7827 67.7579C11.5671 67.6198 11.4079 67.4072 11.2252 67.2278C9.70531 65.7351 9.11785 65.4298 7.08016 64.6298C4.88652 63.7687 2.65736 61.0032 2.04067 58.7287C1.15876 55.476 0.000136513 51.2757 3.37747e-08 49.5C-0.000230549 46.5 1.18018 37.7658 3.85151 41.5688C6.67513 45.5887 11.6165 43.2438 13.7342 41.5688C21.6088 36.8495 24.4661 38.9742 25.0287 45.158C25.4977 50.3124 19.3815 50.1828 26.4405 55.9255Z" fill="white"/>
<mask id="mask1_2703_824" style="mask-type:alpha" maskUnits="userSpaceOnUse" x="1" y="4" width="65" height="64">
<rect x="1.49977" y="4" width="64" height="64" rx="16" fill="#94A3B8"/>
</mask>
<g mask="url(#mask1_2703_824)">
<path d="M38.7081 46.6811C37.2083 41.7788 47.924 37.3834 49.585 36.2424C51.246 35.1013 52.8747 35.1689 54.4605 36.848C56.4427 38.947 50.1737 44.7369 52.1559 46.8358C54.1381 48.9348 51.5124 55.6825 44.6009 54.9924C37.6895 54.3022 40.5828 52.8089 38.7081 46.6811Z" fill="white"/>
<path d="M70.9186 0.854515C69.1879 -4.57565 68.7854 -13.32 63.7064 -14.2939L9.40678 -10.941C11.3509 -5.92221 -5.35349 -2.81156 7.48061 2.96493C8.87984 9.06952 15.0162 0.841143 21.2615 7.13704C27.8597 13.7888 35.7403 14.087 41.5773 11.0328C46.8635 8.26684 62.8977 16.4593 65.2415 10.4723C67.1951 5.48206 77.1192 20.31 70.9186 0.854515Z" fill="white"/>
<circle cx="27.9998" cy="25.4998" r="2.5" fill="white"/>
</g>
<defs>
<clipPath id="clip0_2703_824">
<path d="M1.49977 20C1.49977 11.1634 8.66322 4 17.4998 4H49.4998C58.3363 4 65.4998 11.1634 65.4998 20V52C65.4998 60.8366 58.3363 68 49.4998 68H17.4998C8.66322 68 1.49977 60.8366 1.49977 52V20Z" fill="white"/>
</clipPath>
</defs>
</svg>
