<svg width="155" height="155" viewBox="0 0 155 155" fill="none" xmlns="http://www.w3.org/2000/svg">
<rect width="155" height="155" fill="#020617"/>
<g filter="url(#filter0_d_900_105)">
<rect x="15" y="11" width="62" height="62" rx="15" fill="#22C55E" stroke="#4ADE80" stroke-width="2"/>
<path d="M45.9288 53.0343C45.0114 53.0343 44.0408 52.9383 43.0168 52.7463C41.9928 52.5543 41.0754 52.2236 40.2648 51.7543C39.9234 51.541 39.6781 51.2956 39.5288 51.0183C39.4008 50.7196 39.3474 50.4316 39.3688 50.1543C39.4114 49.8556 39.5181 49.5996 39.6888 49.3863C39.8808 49.173 40.1154 49.0343 40.3928 48.9703C40.6914 48.9063 41.0114 48.9596 41.3528 49.1303C42.2061 49.5356 43.0061 49.8236 43.7528 49.9943C44.4994 50.1436 45.2354 50.2183 45.9608 50.2183C46.9848 50.2183 47.7421 50.0476 48.2328 49.7063C48.7448 49.3436 49.0008 48.8743 49.0008 48.2983C49.0008 47.8076 48.8301 47.4343 48.4888 47.1783C48.1688 46.901 47.6781 46.6983 47.0168 46.5703L43.8168 45.9623C42.4941 45.7063 41.4808 45.2263 40.7768 44.5223C40.0941 43.797 39.7528 42.869 39.7528 41.7383C39.7528 40.7143 40.0301 39.829 40.5848 39.0823C41.1608 38.3356 41.9501 37.7596 42.9528 37.3543C43.9554 36.949 45.1074 36.7463 46.4088 36.7463C47.3474 36.7463 48.2221 36.853 49.0328 37.0663C49.8648 37.2583 50.6648 37.5676 51.4328 37.9943C51.7528 38.165 51.9661 38.389 52.0728 38.6663C52.2008 38.9436 52.2328 39.2316 52.1688 39.5303C52.1048 39.8076 51.9768 40.0636 51.7848 40.2983C51.5928 40.5116 51.3474 40.6503 51.0488 40.7143C50.7714 40.757 50.4514 40.693 50.0888 40.5223C49.4274 40.181 48.7874 39.9356 48.1688 39.7863C47.5714 39.637 46.9954 39.5623 46.4408 39.5623C45.3954 39.5623 44.6168 39.7436 44.1048 40.1063C43.6141 40.469 43.3688 40.949 43.3688 41.5463C43.3688 41.9943 43.5181 42.3676 43.8168 42.6663C44.1154 42.965 44.5741 43.1676 45.1928 43.2743L48.3928 43.8823C49.7794 44.1383 50.8248 44.6076 51.5288 45.2903C52.2541 45.973 52.6168 46.8903 52.6168 48.0423C52.6168 49.5996 52.0088 50.8263 50.7928 51.7223C49.5768 52.597 47.9554 53.0343 45.9288 53.0343Z" fill="white"/>
</g>
<rect x="78" y="16" width="64" height="64" rx="16" fill="#64748B"/>
<g clip-path="url(#clip0_900_105)">
<rect x="78" y="10" width="64" height="64" rx="16" fill="#94A3B8"/>
<path d="M78 26H93.622M109.244 26H125.622M109.244 26H93.622M109.244 26V10M142 26H125.622M125.622 26V58M125.622 58H142M125.622 58H109.622M93.622 26V58M93.622 58H78M93.622 58H109.622M109.622 58V74" stroke="#64748B" stroke-width="2"/>
</g>
<rect x="79" y="11" width="62" height="62" rx="15" stroke="#CBD5E1" stroke-width="2" stroke-linecap="round" stroke-linejoin="round"/>
<g filter="url(#filter1_d_900_105)">
<rect x="79" y="76" width="62" height="62" rx="15" fill="#334155" stroke="#475569" stroke-width="2"/>
<path d="M111.815 118.32C110.044 118.32 108.711 117.819 107.815 116.816C106.919 115.792 106.471 114.299 106.471 112.336V97.2C106.471 96.5387 106.641 96.0373 106.983 95.696C107.324 95.3547 107.815 95.184 108.455 95.184C109.095 95.184 109.585 95.3547 109.927 95.696C110.289 96.0373 110.471 96.5387 110.471 97.2V112.144C110.471 113.125 110.673 113.851 111.079 114.32C111.505 114.789 112.103 115.024 112.871 115.024C113.041 115.024 113.201 115.024 113.351 115.024C113.5 115.003 113.649 114.981 113.799 114.96C114.097 114.917 114.3 115.003 114.407 115.216C114.513 115.408 114.567 115.813 114.567 116.432C114.567 116.965 114.46 117.381 114.247 117.68C114.033 117.979 113.681 118.16 113.191 118.224C112.977 118.245 112.753 118.267 112.519 118.288C112.284 118.309 112.049 118.32 111.815 118.32Z" fill="white"/>
</g>
<rect x="15" y="81" width="62" height="63.0159" rx="15" stroke="#475569" stroke-width="2" stroke-dasharray="10 10"/>
<path d="M47.736 121.462C46.408 121.462 45.408 121.086 44.736 120.334C44.064 119.566 43.728 118.446 43.728 116.974V105.622C43.728 105.126 43.856 104.75 44.112 104.494C44.368 104.238 44.736 104.11 45.216 104.11C45.696 104.11 46.064 104.238 46.32 104.494C46.592 104.75 46.728 105.126 46.728 105.622V116.83C46.728 117.566 46.88 118.11 47.184 118.462C47.504 118.814 47.952 118.99 48.528 118.99C48.656 118.99 48.776 118.99 48.888 118.99C49 118.974 49.112 118.958 49.224 118.942C49.448 118.91 49.6 118.974 49.68 119.134C49.76 119.278 49.8 119.582 49.8 120.046C49.8 120.446 49.72 120.758 49.56 120.982C49.4 121.206 49.136 121.342 48.768 121.39C48.608 121.406 48.44 121.422 48.264 121.438C48.088 121.454 47.912 121.462 47.736 121.462Z" fill="#475569"/>
<defs>
<filter id="filter0_d_900_105" x="14" y="10" width="64" height="70" filterUnits="userSpaceOnUse" color-interpolation-filters="sRGB">
<feFlood flood-opacity="0" result="BackgroundImageFix"/>
<feColorMatrix in="SourceAlpha" type="matrix" values="0 0 0 0 0 0 0 0 0 0 0 0 0 0 0 0 0 0 127 0" result="hardAlpha"/>
<feOffset dy="6"/>
<feComposite in2="hardAlpha" operator="out"/>
<feColorMatrix type="matrix" values="0 0 0 0 0.0823529 0 0 0 0 0.501961 0 0 0 0 0.239216 0 0 0 1 0"/>
<feBlend mode="normal" in2="BackgroundImageFix" result="effect1_dropShadow_900_105"/>
<feBlend mode="normal" in="SourceGraphic" in2="effect1_dropShadow_900_105" result="shape"/>
</filter>
<filter id="filter1_d_900_105" x="78" y="75" width="64" height="70" filterUnits="userSpaceOnUse" color-interpolation-filters="sRGB">
<feFlood flood-opacity="0" result="BackgroundImageFix"/>
<feColorMatrix in="SourceAlpha" type="matrix" values="0 0 0 0 0 0 0 0 0 0 0 0 0 0 0 0 0 0 127 0" result="hardAlpha"/>
<feOffset dy="6"/>
<feComposite in2="hardAlpha" operator="out"/>
<feColorMatrix type="matrix" values="0 0 0 0 0.117647 0 0 0 0 0.160784 0 0 0 0 0.231373 0 0 0 1 0"/>
<feBlend mode="normal" in2="BackgroundImageFix" result="effect1_dropShadow_900_105"/>
<feBlend mode="normal" in="SourceGraphic" in2="effect1_dropShadow_900_105" result="shape"/>
</filter>
<clipPath id="clip0_900_105">
<rect x="78" y="10" width="64" height="64" rx="16" fill="white"/>
</clipPath>
</defs>
</svg>
