<svg width="108" height="108" viewBox="0 0 108 108" fill="none" xmlns="http://www.w3.org/2000/svg">
<rect width="108" height="108" fill="#020617"/>
<rect x="37.2824" y="32.6629" width="62" height="63.0159" rx="15" transform="rotate(6.79211 37.2824 32.6629)" stroke="#475569" stroke-width="2" stroke-dasharray="10 10"/>
<path d="M63.2763 76.5071C62.5931 76.4257 61.8787 76.2681 61.1331 76.0343C60.3876 75.8005 59.7337 75.4728 59.1716 75.0514C58.9363 74.8623 58.7754 74.6578 58.6888 74.438C58.6199 74.2042 58.6058 73.985 58.6463 73.7804C58.7045 73.5617 58.8067 73.3805 58.9527 73.2368C59.1146 73.0949 59.3017 73.0125 59.5139 72.9894C59.742 72.9682 59.9756 73.0364 60.2146 73.1937C60.8142 73.5713 61.3844 73.8567 61.9254 74.0501C62.4682 74.2275 63.0097 74.3484 63.5499 74.4127C64.3125 74.5036 64.8917 74.4436 65.2873 74.233C65.7008 74.0083 65.9331 73.6815 65.9842 73.2525C66.0277 72.8871 65.9337 72.5939 65.7022 72.373C65.4885 72.138 65.1411 71.9436 64.6599 71.7896L62.3307 71.053C61.3684 70.745 60.6563 70.2976 60.1944 69.7109C59.7503 69.1102 59.5785 68.3888 59.6787 67.5467C59.7696 66.7841 60.0546 66.1494 60.534 65.6425C61.0292 65.1375 61.6681 64.7786 62.4508 64.5656C63.2334 64.3527 64.1094 64.304 65.0785 64.4194C65.7776 64.5026 66.4195 64.6597 67.0043 64.8905C67.6069 65.1072 68.1752 65.4086 68.7094 65.7944C68.9325 65.9499 69.0715 66.1357 69.1264 66.3517C69.1971 66.5696 69.1954 66.7869 69.1212 67.0036C69.049 67.2045 68.9309 67.3838 68.7671 67.5415C68.6052 67.6834 68.4102 67.7649 68.1821 67.7861C67.9718 67.7932 67.7392 67.7172 67.4842 67.5579C67.022 67.2451 66.5671 67.0056 66.1196 66.8395C65.688 66.6753 65.2656 66.5686 64.8526 66.5194C64.0741 66.4267 63.4781 66.4927 63.0646 66.7173C62.667 66.9439 62.4417 67.2796 62.3887 67.7245C62.349 68.0581 62.4271 68.3494 62.623 68.5983C62.819 68.8472 63.1426 69.0388 63.5939 69.1732L65.9231 69.9098C66.9331 70.2235 67.67 70.6657 68.1337 71.2366C68.6133 71.8093 68.802 72.5246 68.6999 73.3826C68.5617 74.5424 68.0001 75.402 67.015 75.9614C66.0319 76.505 64.7856 76.6868 63.2763 76.5071Z" fill="#475569"/>
<g filter="url(#filter0_d_900_88)">
<rect x="16.3689" y="14.8796" width="62" height="62" rx="15" transform="rotate(-1.26006 16.3689 14.8796)" fill="#334155" stroke="#475569" stroke-width="2"/>
<path d="M47.2878 56.5298C46.3707 56.55 45.3982 56.4753 44.3702 56.3059C43.3422 56.1365 42.4178 55.826 41.597 55.3747C41.2511 55.1689 41.0004 54.929 40.845 54.655C40.7105 54.3592 40.6508 54.0725 40.6661 53.7947C40.7022 53.4952 40.8032 53.2369 40.9691 53.0199C41.1564 52.8024 41.3879 52.6586 41.6638 52.5885C41.961 52.518 42.2821 52.5642 42.6271 52.7274C43.4891 53.1138 44.2952 53.3842 45.0455 53.5384C45.7953 53.6713 46.5327 53.7297 47.2579 53.7138C48.2816 53.6913 49.035 53.504 49.5181 53.1519C50.022 52.7781 50.2676 52.3032 50.2549 51.7274C50.2441 51.2368 50.0653 50.8673 49.7184 50.6189C49.3924 50.3487 48.8974 50.1569 48.2334 50.0434L45.0208 49.5059C43.6928 49.2791 42.6692 48.8215 41.9499 48.1331C41.2514 47.423 40.8898 46.5027 40.8649 45.3723C40.8424 44.3486 41.1002 43.4574 41.6383 42.6987C42.1977 41.9395 42.9742 41.3463 43.9677 40.919C44.9612 40.4917 46.1085 40.2638 47.4095 40.2352C48.348 40.2145 49.2248 40.3019 50.0399 40.4974C50.8759 40.6711 51.6825 40.9627 52.4597 41.3724C52.7834 41.536 53.0016 41.7552 53.1144 42.0302C53.2484 42.3046 53.2868 42.5918 53.2293 42.8918C53.1715 43.1705 53.0491 43.4293 52.8623 43.6681C52.6751 43.8856 52.4328 44.0296 52.1356 44.1002C51.8593 44.1489 51.538 44.092 51.1717 43.9293C50.503 43.6026 49.8577 43.3714 49.2359 43.2357C48.6355 43.0996 48.058 43.0376 47.5034 43.0498C46.4584 43.0728 45.6839 43.2712 45.18 43.645C44.6974 44.0184 44.4627 44.5037 44.4758 45.1009C44.4857 45.5488 44.6432 45.9187 44.9483 46.2107C45.2535 46.5028 45.7165 46.6953 46.3374 46.7883L49.55 47.3258C50.9419 47.5513 51.9973 47.9975 52.7162 48.6645C53.4563 49.3311 53.8391 50.2402 53.8644 51.3919C53.8987 52.9489 53.3178 54.1886 52.1218 55.1111C50.9253 56.0123 49.314 56.4852 47.2878 56.5298Z" fill="white"/>
</g>
<defs>
<filter id="filter0_d_900_88" x="15.3472" y="12.4944" width="65.3918" height="71.3919" filterUnits="userSpaceOnUse" color-interpolation-filters="sRGB">
<feFlood flood-opacity="0" result="BackgroundImageFix"/>
<feColorMatrix in="SourceAlpha" type="matrix" values="0 0 0 0 0 0 0 0 0 0 0 0 0 0 0 0 0 0 127 0" result="hardAlpha"/>
<feOffset dy="6"/>
<feComposite in2="hardAlpha" operator="out"/>
<feColorMatrix type="matrix" values="0 0 0 0 0.117647 0 0 0 0 0.160784 0 0 0 0 0.231373 0 0 0 1 0"/>
<feBlend mode="normal" in2="BackgroundImageFix" result="effect1_dropShadow_900_88"/>
<feBlend mode="normal" in="SourceGraphic" in2="effect1_dropShadow_900_88" result="shape"/>
</filter>
</defs>
</svg>
