<svg width="51" height="51" viewBox="0 0 51 51" fill="none" xmlns="http://www.w3.org/2000/svg">
<path d="M9 2H42C45.866 2 49 5.13401 49 9V41.5V42C49 45.866 45.866 49 42 49H9C5.13401 49 2 45.866 2 42V9C2 5.13401 5.13401 2 9 2Z" fill="white" stroke="#BFBFBF" stroke-width="3" stroke-linecap="round"/>
<path d="M25.24 36.32C24.3013 36.32 23.3627 36.2453 22.424 36.096C21.4853 35.968 20.6 35.7653 19.768 35.488C18.936 35.1893 18.1893 34.8267 17.528 34.4C17.144 34.144 16.8773 33.8347 16.728 33.472C16.5787 33.1093 16.5253 32.7573 16.568 32.416C16.632 32.0533 16.7707 31.744 16.984 31.488C17.2187 31.2107 17.5067 31.04 17.848 30.976C18.1893 30.912 18.5627 31.008 18.968 31.264C19.9067 31.8187 20.8987 32.224 21.944 32.48C22.9893 32.736 24.088 32.864 25.24 32.864C26.9253 32.864 28.152 32.5867 28.92 32.032C29.688 31.456 30.072 30.72 30.072 29.824C30.072 29.0773 29.7947 28.4907 29.24 28.064C28.7067 27.6373 27.7787 27.2853 26.456 27.008L22.936 26.272C20.9093 25.8453 19.3947 25.1307 18.392 24.128C17.4107 23.104 16.92 21.76 16.92 20.096C16.92 19.0507 17.1333 18.1013 17.56 17.248C17.9867 16.3947 18.584 15.6587 19.352 15.04C20.1413 14.4213 21.0693 13.952 22.136 13.632C23.224 13.2907 24.4187 13.12 25.72 13.12C27 13.12 28.216 13.28 29.368 13.6C30.52 13.92 31.5547 14.3893 32.472 15.008C32.8133 15.2427 33.0373 15.5307 33.144 15.872C33.272 16.2133 33.304 16.5547 33.24 16.896C33.176 17.216 33.0267 17.4933 32.792 17.728C32.5573 17.9627 32.2587 18.1013 31.896 18.144C31.5547 18.1867 31.16 18.08 30.712 17.824C29.9227 17.376 29.1227 17.056 28.312 16.864C27.5013 16.672 26.6267 16.576 25.688 16.576C24.7067 16.576 23.864 16.7147 23.16 16.992C22.456 17.2693 21.912 17.664 21.528 18.176C21.1653 18.6667 20.984 19.2533 20.984 19.936C20.984 20.704 21.24 21.3227 21.752 21.792C22.264 22.24 23.1387 22.592 24.376 22.848L27.864 23.584C29.976 24.032 31.544 24.736 32.568 25.696C33.6133 26.656 34.136 27.936 34.136 29.536C34.136 30.56 33.9227 31.488 33.496 32.32C33.0907 33.152 32.4933 33.8667 31.704 34.464C30.936 35.0613 30.008 35.52 28.92 35.84C27.832 36.16 26.6053 36.32 25.24 36.32Z" fill="black"/>
</svg>
